<?xml version="1.0" standalone="no"?>
<!DOCTYPE svg PUBLIC "-//W3C//DTD SVG 20010904//EN"
 "http://www.w3.org/TR/2001/REC-SVG-20010904/DTD/svg10.dtd">
<svg version="1.0" xmlns="http://www.w3.org/2000/svg"
 width="512.000000pt" height="512.000000pt" viewBox="0 0 512.000000 512.000000"
 preserveAspectRatio="xMidYMid meet">
<metadata>
Created by potrace 1.11, written by Peter Selinger 2001-2013
</metadata>
<g transform="translate(0.000000,512.000000) scale(0.100000,-0.100000)"
fill="#000000" stroke="none">
<path d="M3930 5113 c-8 -3 -46 -29 -85 -57 -101 -73 -421 -308 -508 -372
-312 -231 -399 -294 -409 -294 -6 0 -19 6 -27 14 -59 52 -171 88 -271 88 -88
0 -159 -20 -235 -66 -31 -19 -365 -346 -870 -851 -871 -871 -851 -848 -885
-975 -34 -127 1 -291 81 -385 16 -19 14 -23 -50 -111 -62 -86 -384 -525 -534
-727 -120 -163 -130 -180 -132 -219 -5 -81 -14 -71 529 -616 538 -540 540
-542 617 -542 39 0 54 10 313 200 130 96 259 191 286 210 27 19 128 93 225
165 97 72 185 136 195 143 17 12 26 9 78 -23 140 -86 294 -93 442 -22 51 25
97 63 216 180 l152 148 67 -65 c40 -40 80 -69 101 -75 118 -33 223 85 177 199
-8 19 -41 62 -73 95 l-60 60 318 318 317 317 65 -65 c85 -84 145 -101 216 -61
46 25 71 66 77 123 5 52 -13 85 -90 160 l-55 54 150 152 c119 123 155 165 180
217 71 150 61 311 -28 451 l-32 48 56 78 c30 43 193 265 361 493 200 271 307
426 311 447 16 87 32 68 -519 621 -282 282 -528 521 -547 531 -36 18 -93 25
-120 14z"/>
</g>
</svg>
