<svg width="17" height="14" viewBox="0 0 17 14" fill="none" xmlns="http://www.w3.org/2000/svg">
<path d="M17 1.65714C16.3748 1.9383 15.7026 2.12832 14.9972 2.21393C15.7171 1.77632 16.2699 1.08372 16.5303 0.258611C15.8565 0.66379 15.1104 0.957684 14.3156 1.1161C13.6797 0.429374 12.7733 0.00012207 11.7702 0.00012207C9.84398 0.00012207 8.28278 1.58241 8.28278 3.53432C8.28278 3.81143 8.31333 4.08126 8.37303 4.33977C5.47446 4.19257 2.90469 2.78509 1.18455 0.647024C0.884335 1.16878 0.712366 1.77582 0.712366 2.42364C0.712366 3.64999 1.32781 4.73159 2.26388 5.36564C1.69221 5.34752 1.15438 5.18847 0.684154 4.92356C0.683485 4.93845 0.68348 4.95314 0.68348 4.96792C0.68348 6.68064 1.88579 8.10879 3.48108 8.43369C3.18868 8.51447 2.88065 8.55719 2.56254 8.55719C2.33759 8.55719 2.11949 8.53562 1.90617 8.49418C2.35027 9.89826 3.63801 10.9202 5.16439 10.9488C3.96982 11.8969 2.46628 12.4617 0.8322 12.4617C0.55089 12.4617 0.273057 12.4449 0 12.4124C1.54405 13.4152 3.37699 14.0001 5.34672 14.0001C11.7614 14.0001 15.2689 8.61479 15.2689 3.94394C15.2689 3.79078 15.2654 3.63866 15.2591 3.48709C15.9402 2.98839 16.5314 2.36607 16.9992 1.65717" fill="#5C5C50"/>
</svg>
